# xmcd
#
# Track frame offsets:
#	150
#	19359
#	32457
#	50810
#	62596
#	78895
#	101040
#	116739
#	130853
#	146886
#	170539
#	184642
#
# Disc length: 2667 seconds
#
# Revision: 1
# Processed by: cddbd v1.5.1PL2 Copyright (c) Steve Scherf et al.
# Submitted via: audiograbber 1.83.01
#
DISCID=a60a690c
DTITLE=Paul Mac Bonvin - Mais Yeah!
DYEAR=1999
DGENRE=Blues
TTITLE0=Je Dois Rêver
TTITLE1=Real Wild Child
TTITLE2=Pas d'Amour sans Amour
TTITLE3=Hold On My Love
TTITLE4=C'est La Faute A L'Amour
TTITLE5=Memphis Killer
TTITLE6=Jolie Blonde
TTITLE7=Pas En Mourir
TTITLE8=Your Boys
TTITLE9=Highwayman
TTITLE10=La Porte Est Toujours Ouverte
TTITLE11=In The Name Of Love
EXTD=
EXTT0=
EXTT1=
EXTT2=
EXTT3=
EXTT4=
EXTT5=
EXTT6=
EXTT7=
EXTT8=
EXTT9=
EXTT10=
EXTT11=
PLAYORDER=
